<svg width="78" height="48" viewBox="0 0 78 48" fill="none" xmlns="http://www.w3.org/2000/svg">
<path d="M66.1536 0.615479H46.9229C45.8183 0.615479 44.9229 1.51091 44.9229 2.61548V7.23086C44.9229 8.33543 45.8149 9.23086 46.9195 9.23086H64.6152C66.4613 9.23086 68.9229 11.3847 68.9229 12.9232V14.5713C68.9229 14.703 68.9098 14.8344 68.884 14.9635L68.6152 16.3078C68.0415 20.0367 65.3286 20.4677 64.2157 20.3428C64.0707 20.3265 63.9262 20.3078 63.7802 20.3078H46.9229C45.8183 20.3078 44.9229 21.2032 44.9229 22.3078V46.0001C44.9229 47.1047 45.8183 48.0001 46.9229 48.0001H52.1536C53.2582 48.0001 54.1536 47.1047 54.1536 46.0001V30.9232C54.1536 29.8186 55.0491 28.9232 56.1536 28.9232H58.0931C58.8792 28.9232 59.5923 29.3836 59.9159 30.1L67.4683 46.8233C67.7918 47.5396 68.505 48.0001 69.291 48.0001H74.6944C76.1604 48.0001 77.1282 46.475 76.504 45.1485L68.6548 28.469C68.3501 27.8215 68.8226 27.077 69.5382 27.077C73.3255 26.6036 75.7092 22.1089 76.525 19.6669C76.5875 19.4798 76.6152 19.2844 76.6152 19.0871V9.41964C76.6152 9.29407 76.6034 9.16651 76.5778 9.04357C75.2649 2.73355 69.2006 0.920177 66.1536 0.615479Z" fill="white"/>
<path d="M8.30769 0H0V36.9231H8.30769V16.6154L30.4615 48H40V0H30.4615V32L8.30769 0Z" fill="white"/>
</svg>
